<?xml version="1.0" encoding="utf-8"?><svg xmlns="http://www.w3.org/2000/svg" xmlns:xlink="http://www.w3.org/1999/xlink"><symbol viewBox="0 0 19.25 19.25" id="config"><defs><style>.acls-1{fill:#d6d8d9;fill-rule:evenodd}</style></defs><path class="acls-1" d="M15.568 6.154l1.9-2.316-2.047-2.044-2.411 1.973a6.6 6.6 0 0 0-1.616-.6l-.317-3.173h-2.9l-.321 3.175a6.553 6.553 0 0 0-1.616.6L3.831 1.794 1.788 3.837l1.9 2.316a6.571 6.571 0 0 0-.755 1.732l-2.941.294v2.888l2.945.294a6.631 6.631 0 0 0 .748 1.733l-1.9 2.318 2.043 2.042 2.41-1.971a6.582 6.582 0 0 0 1.617.6l.317 3.172h2.9l.317-3.172a6.582 6.582 0 0 0 1.617-.6l2.41 1.971 2.043-2.042-1.893-2.318a6.634 6.634 0 0 0 .752-1.729l2.946-.294V8.179l-2.941-.294a6.576 6.576 0 0 0-.755-1.731zm-5.942 6.33a2.861 2.861 0 1 1 2.863-2.861 2.862 2.862 0 0 1-2.863 2.86z"/></symbol><symbol viewBox="0 0 18.813 17.063" id="css"><defs><style>.bcls-1{fill:#d6d8d9;fill-rule:evenodd}</style></defs><path id="bForma_1" data-name="Forma 1" class="bcls-1" d="M8.388 6.482L7.76 9.644h12.862l-.4 2.034H7.344l-.617 3.162h12.862l-.724 3.61-5.175 1.714L9.2 18.45l.309-1.565H6.343l-.756 3.79 7.432 2.843 8.561-2.843 2.833-14.193H8.388z" transform="translate(-5.594 -6.469)"/></symbol><symbol viewBox="0 0 32 32" id="enp"><defs><style>.ccls-1,.ccls-2{fill:#003375}.ccls-2{fill-rule:evenodd}</style></defs><path id="cProstokąt_2" data-name="Prostokąt 2" class="ccls-1" d="M17 0h15v15H17z"/><path id="cProstokąt_2_kopia" data-name="Prostokąt 2 kopia" class="ccls-1" d="M17 17h15v15H17z"/><path id="cProstokąt_2_kopia_2" data-name="Prostokąt 2 kopia 2" class="ccls-1" d="M0 17h15v15H0z"/><path id="cElipsa_1" data-name="Elipsa 1" class="ccls-2" d="M0 12.147A15.373 15.373 0 0 1 11.843 0H15v15H0v-2.853z"/></symbol><symbol viewBox="0 0 18.188 18.188" id="faq"><defs><style>.dcls-1{fill:#d6d8d9;fill-rule:evenodd}</style></defs><path id="dForma_1" data-name="Forma 1" class="dcls-1" d="M24.107 14.5a9.107 9.107 0 1 0-16.966 4.6 9.118 9.118 0 0 0 3.73 3.515 9.008 9.008 0 0 0 4.129.992 9.107 9.107 0 0 0 8.106-4.953 9.132 9.132 0 0 0 1.001-4.154zM7.935 17.746a7.787 7.787 0 0 1-.125-6.205l2.276 1.647a5.1 5.1 0 0 0 .057 2.823l-1.554 1.221zm5.865.311a3.753 3.753 0 0 1-2.311-4.889 3.753 3.753 0 1 1 5 4.778 3.757 3.757 0 0 1-2.689.111zm8.323-6.669a7.79 7.79 0 0 1 .649 3.112 7.7 7.7 0 0 1-.531 2.831l-2.294-1.66a5.091 5.091 0 0 0-.049-2.534l2.012-1.582zM15 6.726a7.81 7.81 0 0 1 2.984.594l-1.645 2.273a5.113 5.113 0 0 0-2.682 0l-1.751-2.226A7.8 7.8 0 0 1 15 6.726zm0 15.548a7.7 7.7 0 0 1-2.806-.521l1.662-2.3a5.093 5.093 0 0 0 2.674-.1l.878 1.117.856 1.089a7.78 7.78 0 0 1-3.264.715z" transform="translate(-5.906 -5.406)"/></symbol><symbol viewBox="0 0 18.125 24.375" id="grunt"><defs><style>.ecls-1{fill:#d6d8d9;fill-rule:evenodd}</style></defs><path id="enew_vector_shape_done" class="ecls-1" d="M17.724 3.859a1.169 1.169 0 0 1-.176.4 2.536 2.536 0 0 0-.227 1.441l.453.126a4.913 4.913 0 0 1 2.767-1.987l.327-.025a3.012 3.012 0 0 1 2.389.629 1.367 1.367 0 0 1 .579.629h-.05a3.038 3.038 0 0 1-.629.126c-.623.193-1.546.607-1.333 1.534a1.477 1.477 0 0 0 .075.453V7.2a1.452 1.452 0 0 1 1.584 1.84c-.192.636-.8 1.067-.6 1.962v.4a1.845 1.845 0 0 0 .151.528c.162.24.529.342.7.579a2.081 2.081 0 0 1 .327.906 1.293 1.293 0 0 1-.327.956 4.206 4.206 0 0 1-1.458 1.129 2.159 2.159 0 0 0-.755.453c-.667.9-.228 2.714-.2 4h.05c.174-.27.492-.508.679-.8a5.947 5.947 0 0 0 .453-1.232h.025v.025a2.169 2.169 0 0 1 .755 1.107 5.485 5.485 0 0 1 .252.83 3.175 3.175 0 0 1-.05 1.283c-.055.221-.035.381-.1.579a3.266 3.266 0 0 1-1.258 1.71 3.822 3.822 0 0 1-.553.3l-.3.1a.957.957 0 0 0-.151.3c-.118.195-.273.375-.4.553a3.98 3.98 0 0 1-1.685 1.308 5.374 5.374 0 0 1-.8.2h-.187a3.377 3.377 0 0 0-.478.352 5.151 5.151 0 0 1-1.409.5 6.3 6.3 0 0 1-3.32-.3 4.742 4.742 0 0 1-.7-.4 1.13 1.13 0 0 0-.176-.151l-.453-.05a4.356 4.356 0 0 1-1.056-.4 4.52 4.52 0 0 1-1.308-1.207 4.535 4.535 0 0 0-.4-.7c-.181-.13-.43-.146-.611-.26a3.531 3.531 0 0 1-1.006-.855 4.2 4.2 0 0 1-.553-3.345 3.816 3.816 0 0 1 .5-1.056c.111-.155.285-.277.4-.428h.031v.025a3.1 3.1 0 0 1 .126.528 3.486 3.486 0 0 0 1.056 1.484c.017-1.3.482-3.079-.2-4a2.16 2.16 0 0 0-.756-.453 4.2 4.2 0 0 1-1.459-1.132 1.308 1.308 0 0 1-.327-.956 2.035 2.035 0 0 1 .327-.905c.176-.236.542-.338.7-.578a1.845 1.845 0 0 0 .155-.529 4.63 4.63 0 0 0 0-1.182 4.517 4.517 0 0 0-.453-.755 1.619 1.619 0 0 1 .277-1.912 2.162 2.162 0 0 1 .654-.3 2.191 2.191 0 0 0 .5-.075 1.25 1.25 0 0 0 .075-.7 2.42 2.42 0 0 0-.05-.428 2.689 2.689 0 0 0-1.962-.981v-.076c.17-.114.244-.333.4-.453a4.971 4.971 0 0 1 .8-.5 3.815 3.815 0 0 1 .629-.2 2.742 2.742 0 0 1 .729-.05A3.924 3.924 0 0 1 11.36 4.84a5.03 5.03 0 0 1 .654.679.662.662 0 0 0 .277.3l.226-.075v-.376a2.565 2.565 0 0 0 .1-.453 2.391 2.391 0 0 1 1.233-1.459v.05a2.389 2.389 0 0 1 .025.478.9.9 0 0 0 .327.729v-.024h.025a2.39 2.39 0 0 1 1.811-1.861v.125a2.26 2.26 0 0 0 .1 1.61.086.086 0 0 0 .05-.025 1.658 1.658 0 0 0 .352-.277 2.059 2.059 0 0 1 1.184-.402zm-9.181.6a9.006 9.006 0 0 0-.905.226.128.128 0 0 0-.025.075c.133.06.276.185.4.226.161.052.558-.081.78-.025a3.661 3.661 0 0 1 .8.252 3.435 3.435 0 0 1 .855.679 1.614 1.614 0 0 0 .428.528 1.376 1.376 0 0 0 .5-.327h-.016a2.014 2.014 0 0 0-.4-.5 2.8 2.8 0 0 0-2.417-1.13zm12.5 0a1.263 1.263 0 0 1-.327.05 2.813 2.813 0 0 0-.7.252 3.606 3.606 0 0 0-.956.78 4.613 4.613 0 0 1-.428.553.086.086 0 0 0 .025.05 1.15 1.15 0 0 0 .553.277 2.834 2.834 0 0 1 1.912-1.434c.435-.089 1.186.1 1.283-.3h-.028v-.023a2.906 2.906 0 0 1-.528-.151 3.23 3.23 0 0 0-.805-.05zM8.618 5.469a1.858 1.858 0 0 0 .2.453c.126.37.01 1.243.328 1.378a1.486 1.486 0 0 0 .528.126 2.3 2.3 0 0 0 .5-.6 3.9 3.9 0 0 1-.223-.526 1.564 1.564 0 0 0-1.333-.831zm12.6 0a3.544 3.544 0 0 1-.478.151 1.846 1.846 0 0 0-.904 1.28 2.2 2.2 0 0 0 .6.528 1.265 1.265 0 0 1 .482-.128 3 3 0 0 0 .176-.4v-.274a5.713 5.713 0 0 1 .151-.755 2.408 2.408 0 0 0 .155-.377.333.333 0 0 0-.18-.025zM7.713 9.694a2.7 2.7 0 0 1 .025-.5h.025v.022a2 2 0 0 1 .126.629 4.3 4.3 0 0 1-.277 2.54 1.167 1.167 0 0 1-.3.6v-.172a.466.466 0 0 0 .025-.226h-.1a1.96 1.96 0 0 0-.377.377 1.224 1.224 0 0 0 .252 1.308c.762.762 1.909.785 2.314 1.962a6.323 6.323 0 0 1 .05 2.339l-.05 1.207a2.673 2.673 0 0 0-.05.654 6.683 6.683 0 0 0 1.912.327 5.08 5.08 0 0 1 .352-.8c.042-.094.008-.158.05-.252.219-.486.429-1.031.654-1.509l.025-.226a3.579 3.579 0 0 1 .4-.755v.176a2.019 2.019 0 0 0-.1.579c-.079.287-.105.625-.2.931-.113.359-.218.791-.352 1.132-.065.165-.035.288-.1.453a4.3 4.3 0 0 0-.327.906h6.64a2.991 2.991 0 0 0-.277-.755v-.131c-.113-.32-.228-.708-.352-1.031-.05-.132 0-.22-.05-.352a7.167 7.167 0 0 1-.4-1.912h.049a3.554 3.554 0 0 0 .352.755l.021.23c.267.567.479 1.212.755 1.786a1.041 1.041 0 0 0 .428.78 6.221 6.221 0 0 1 .7-.05 5.733 5.733 0 0 0 1.056-.277c.022-.019.028-.032.05-.05-.106-.567-.026-1.233-.151-1.811V18.1a5.2 5.2 0 0 1 .025-1.685 2.909 2.909 0 0 1 .528-.981 1.179 1.179 0 0 1 .327-.2 6.455 6.455 0 0 0 1.66-1.107c.277-.457.273-1.466-.377-1.534l.025.4h-.05a1.654 1.654 0 0 0-.2-.377 5.887 5.887 0 0 1-.2-.553 4.919 4.919 0 0 1 0-2.867.09.09 0 0 1 .025.05 2.812 2.812 0 0 1 .05.453h.05a1.593 1.593 0 0 1 .2-.3 1.878 1.878 0 0 0 .252-1.006 1.3 1.3 0 0 0-.478-.428 2.716 2.716 0 0 0-1.383.05 6.729 6.729 0 0 0-.88.2A13.825 13.825 0 0 0 17.9 9.418a5.071 5.071 0 0 1-.981.7v-.05a7.578 7.578 0 0 0 .528-.755 3.094 3.094 0 0 1 .252-.2 6.935 6.935 0 0 1 1.082-.931 2.3 2.3 0 0 1 .8-.453v-.1c-.1-.064-.157-.192-.252-.252a9.688 9.688 0 0 0-.78-.453c-.11-.055-.2-.024-.327-.075a16.621 16.621 0 0 0-1.308-.453h-.2a11.426 11.426 0 0 0-.377-.1h-.3a7.841 7.841 0 0 0-4 .453c-.1.042-.151.007-.252.05a5.5 5.5 0 0 0-1.031.6.551.551 0 0 0-.3.3 5.016 5.016 0 0 1 2.012 1.559 2.812 2.812 0 0 1 .629.855h-.075a4.106 4.106 0 0 0-.755-.553 8.6 8.6 0 0 0-3.043-1.551c-.677-.215-1.822-.179-2.037.377v.4a2.152 2.152 0 0 0 .528.908zM9.2 10.977a4.336 4.336 0 0 1 2.767 1.132 2.108 2.108 0 0 1 .478.553 1.7 1.7 0 0 0 .679.4.981.981 0 0 0 .579.075c.123-.044.3-.113.428-.151v.176a1.311 1.311 0 0 0-.1.252 1.235 1.235 0 0 1-.4.377c-.124.067-.364.055-.478.126-.086.146-.053.488-.126.654-.115.265-.3.482-.428.729h-.05v-.122a1.822 1.822 0 0 0-.075-1.333c-.226.089-.384.251-.629.327a2.34 2.34 0 0 1-2.213-.88 3.966 3.966 0 0 1-.252-.528v-.1l-.08-.027a1.564 1.564 0 0 0-.126-.578v.025a5.316 5.316 0 0 1-.176.6l-.025-.05a1.408 1.408 0 0 1-.176-.981c.057-.177.217-.269.277-.428a.889.889 0 0 1-.528-.2 2.285 2.285 0 0 0 .654-.048zm11.47 0l.8.05v.05h-.05a1.8 1.8 0 0 0-.478.2 1.142 1.142 0 0 1 .1 1.383l-.075.025a1.567 1.567 0 0 0-.126-.629h-.05a2.235 2.235 0 0 1-1.986 2.144 1.563 1.563 0 0 1-.905-.126.55.55 0 0 0-.352-.2 2.131 2.131 0 0 0-.075 1.434h-.05v-.03a2.368 2.368 0 0 1-.478-.855 2.491 2.491 0 0 0-.075-.5c-.1-.061-.268-.026-.377-.075a.956.956 0 0 1-.6-.855h.05a1.334 1.334 0 0 0 1.157.025 2.9 2.9 0 0 0 .679-.629 5.578 5.578 0 0 1 1.182-.931 5.9 5.9 0 0 1 1.056-.4 3.224 3.224 0 0 0 .649-.081zM13.825 11a2.616 2.616 0 0 0 1.509.3c.313-.076.584-.216.855-.3v.05a4.217 4.217 0 0 1-.956.679h-.452a2.157 2.157 0 0 1-.956-.729zm-3.722.755c-.057.884-.092 1.476.6 1.836a1.606 1.606 0 0 0 1.56-.126c-.232-.179-.365-.5-.6-.679-.326-.246-.627-.48-.981-.7a1.325 1.325 0 0 0-.582-.329zm9.734 0c-.271.266-.69.383-.981.629v.05c-.214.181-.45.315-.654.5-.164.151-.294.346-.453.5l.025.126c.226.043.461.146.7.2a.863.863 0 0 0 .4-.05 1.165 1.165 0 0 0 1.056-.981 1.6 1.6 0 0 0-.05-.956.091.091 0 0 0-.044-.016zM7.31 19.277a3.43 3.43 0 0 0-.075 1.987 4.038 4.038 0 0 0 .252.78 3.208 3.208 0 0 0 2.767 1.409v-.025h.025a1.559 1.559 0 0 1 .126-1.409 2.061 2.061 0 0 0 .453-.6h-.026v-.029a4.1 4.1 0 0 1-2.943-1.157c-.121-.162-.248-.331-.352-.5a1.43 1.43 0 0 0-.227-.456zm12.425 4.2a3.168 3.168 0 0 0 2.842-1.484 2.706 2.706 0 0 0 .226-.755 3.224 3.224 0 0 0-.076-1.937.127.127 0 0 0-.075-.025.091.091 0 0 1-.05.025 1.164 1.164 0 0 1-.327.7 3.543 3.543 0 0 1-2.088 1.283c-.319.1-.716.022-1.031.126v.05a1.454 1.454 0 0 1 .226.327 1.7 1.7 0 0 1 .453.729 4.478 4.478 0 0 1-.099.962zm-8-1.484a.9.9 0 0 1-.252.05 1.032 1.032 0 0 0-.579.4c-.28.543.26 1.423.4 1.761v.126a3.845 3.845 0 0 0 .428.629 3.343 3.343 0 0 0 2.037 1.383 3.291 3.291 0 0 0 1.509.151h.352a5.568 5.568 0 0 0 .755-.151 4.34 4.34 0 0 0 2.772-3.242v-.326c0-.8-.872-.78-1.685-.78h-5.735zm.226.7c.613 0 1.3.022 1.836.05a.421.421 0 0 1 .176.377.578.578 0 0 0-.05.126 1.292 1.292 0 0 0-.126.076c-.038.062-.013.113-.05.176a3.06 3.06 0 0 1-.578.679c-.679.386-1.2-.414-1.434-.754a.792.792 0 0 1-.176-.2V22.9a.453.453 0 0 1 .3-.151c.026-.017.083-.034.105-.049zm4.452 0c.622 0 1.316.023 1.861.05a.449.449 0 0 1 .176.478 2.26 2.26 0 0 0-.277.427 2.342 2.342 0 0 1-.679.579.99.99 0 0 1-.528 0 2.2 2.2 0 0 1-.931-1.308.393.393 0 0 1 .3-.176c.025-.012.065-.027.081-.043zm-6.688 1.414a2.407 2.407 0 0 0 1.006 1.006.606.606 0 0 0 .4.176h.025v-.025c-.213-.18-.43-.943-.6-1.031a4.2 4.2 0 0 0-.831-.126zm10.489 0a3.135 3.135 0 0 1-.8.126c-.064.258-.538.957-.528 1.056a.091.091 0 0 0 .05.025 3.574 3.574 0 0 1 .327-.151 2.975 2.975 0 0 0 1.031-1.006h.025c.025-.025-.025-.025-.025-.025a.128.128 0 0 0-.08-.025z" transform="translate(-5.938 -2.813)"/></symbol><symbol viewBox="0 0 19.438 22.063" id="html"><defs><style>.fcls-1{fill:#d6d8d9;fill-rule:evenodd}</style></defs><path class="fcls-1" d="M.331-.016a.332.332 0 0 0-.336.367l1.71 19.176a.574.574 0 0 0 .388.466l7.257 2.014a1.574 1.574 0 0 0 .711 0l7.279-2.018a.574.574 0 0 0 .388-.466L19.442.35a.332.332 0 0 0-.336-.367H.331zm15.469 4.4l-.062.695-.045.5-.058.641c-.014.15-.026.274-.029.274H6.632a.332.332 0 0 0-.336.367l.158 1.766a.412.412 0 0 0 .4.367h8.2a.3.3 0 0 1 .3.328l-.062.7-.508 5.695-.051.573a.493.493 0 0 1-.374.3l-4.288 1.189-.361.1s-.165-.043-.361-.1l-4.293-1.191a.573.573 0 0 1-.388-.466l-.276-3.1a.332.332 0 0 1 .336-.367h1.714a.412.412 0 0 1 .4.367l.108 1.214a.569.569 0 0 0 .389.463l2.013.551.358.1.358-.1 2.012-.544a.569.569 0 0 0 .389-.463l.218-2.432a.332.332 0 0 0-.336-.367H4.619a.412.412 0 0 1-.4-.367l-.535-6-.065-.695a.316.316 0 0 1 .344-.332h11.5a.316.316 0 0 1 .337.332z"/></symbol><symbol viewBox="0 0 17.938 19.625" id="intro"><defs><style>.gcls-1{fill:#d6d8d9;fill-rule:evenodd}</style></defs><path id="gForma_1" data-name="Forma 1" class="gcls-1" d="M23.145 21.868a1.3 1.3 0 0 0-.4.064l-1.474-1.057a1.325 1.325 0 0 0-.55-1.032v-3a1.326 1.326 0 0 0 .551-1.073v-.024l1.54-1.1a1.3 1.3 0 0 0 .338.045 1.317 1.317 0 1 0-1.316-1.317 1.293 1.293 0 0 0 .007.134L20.4 14.532a1.3 1.3 0 0 0-.457-.083 1.319 1.319 0 0 0-.546.119l-2.587-1.495a1.321 1.321 0 0 0-.569-.961V9.331l1.517-1.519a1.317 1.317 0 1 0-1.078-1.03L15.5 7.967l-1.184-1.185a1.315 1.315 0 1 0-1.288 1.047 1.3 1.3 0 0 0 .21-.018l1.517 1.519v2.782a1.322 1.322 0 0 0-.569.961L11.6 14.568a1.321 1.321 0 0 0-1.316 2.276v3a1.326 1.326 0 0 0-.55 1.032l-1.476 1.056a1.3 1.3 0 0 0-.4-.064 1.317 1.317 0 1 0 1.316 1.317v-.072l1.37-.981a1.33 1.33 0 0 0 1.062-.014l2.586 1.494a1.32 1.32 0 0 0 2.628 0l2.58-1.494a1.33 1.33 0 0 0 1.062.014l1.369.981v.072a1.316 1.316 0 1 0 1.314-1.317zm-3.967-5.024v3a1.328 1.328 0 0 0-.544.939l-2.59 1.5a1.318 1.318 0 0 0-1.088 0l-2.59-1.5a1.327 1.327 0 0 0-.544-.939v-3a1.329 1.329 0 0 0 .544-.94l2.59-1.5a1.333 1.333 0 0 0 1.088 0l2.59 1.5a1.328 1.328 0 0 0 .544.94z" transform="translate(-6.531 -5.188)"/></symbol><symbol viewBox="0 0 30 30" id="javascript"><defs><style>.hcls-1,.hcls-2{fill-rule:evenodd}.hcls-1{stroke:#d6d8d9;stroke-width:1px;fill:none}.hcls-2{fill:#d6d8d9}</style></defs><path id="hWielokąt_1" data-name="Wielokąt 1" class="hcls-1" d="M15.029 4l9.013 5.4v10.8l-9.013 5.4-9.013-5.4V9.4z"/><path id="hnew_vector_shape_done" class="hcls-2" d="M15.31 10.59h.947A5.7 5.7 0 0 1 16 11.908l-.046.393c-.13.481-.2 1.044-.324 1.525-.121.46-.11.9-.231 1.364-.351 1.335-.529 2.765-.809 4.136h-.92a2.492 2.492 0 0 1 .116-.6c.129-.492.156-.994.277-1.456.061-.234.031-.413.092-.647.191-.723.273-1.542.462-2.265.061-.234.031-.413.092-.647.162-.62.2-1.295.37-1.941a6.234 6.234 0 0 0 .231-1.18zm-2.1 1.248v1.618a6.155 6.155 0 0 0-1.155.555c-.669.35-1.361.646-2.033.971v.046a3.656 3.656 0 0 1 .786.393c.538.282 1.09.532 1.618.809a7.665 7.665 0 0 1 .786.37v1.595a1.044 1.044 0 0 1-.393-.208c-.252-.154-.521-.268-.763-.416-.715-.438-1.489-.771-2.2-1.2-.277-.171-.578-.319-.856-.466a3.362 3.362 0 0 1-.393-.185v-1.41a14.738 14.738 0 0 0 1.641-.9c.535-.291 1.076-.517 1.595-.832.324-.2.682-.351 1.017-.555a1.066 1.066 0 0 1 .347-.185zm3.512 0a1.211 1.211 0 0 1 .323.185c.252.154.521.269.763.416.174.106.357.148.531.254.6.363 1.253.677 1.849 1.04.263.16.549.3.809.439a.891.891 0 0 1 .323.162v1.387a1.876 1.876 0 0 0-.51.279c-.238.145-.489.254-.716.393-.623.381-1.294.637-1.918 1.017-.309.188-.65.337-.971.532a2.562 2.562 0 0 1-.485.277V16.6a3.924 3.924 0 0 0 .832-.416c.534-.277 1.074-.514 1.595-.786a2.314 2.314 0 0 0 .763-.416 3.084 3.084 0 0 1-.647-.324c-.589-.3-1.184-.556-1.756-.855a5.363 5.363 0 0 1-.786-.37v-1.595z"/></symbol><symbol viewBox="0 0 16.625 20.375" id="modules"><defs><style>.icls-1{fill:#d6d8d9;fill-rule:evenodd}</style></defs><path id="iForma_1" data-name="Forma 1" class="icls-1" d="M22.524 9.371l-.016-.007-.03-.02-7.8-4.554a.542.542 0 0 0-.559.008L6.505 9.541l-.024.017h-.006a.541.541 0 0 0-.278.473v9.74a.54.54 0 0 0 .255.459l7.668 4.776a.542.542 0 0 0 .575 0l7.857-4.964a.541.541 0 0 0 .252-.457V9.844a.54.54 0 0 0-.28-.473zM13.4 14.818l-6.122 3.961v-7.772zm1.549.952l6.29 3.823-6.29 3.974v-7.8zm.485-.97l6.29-3.975v7.8zm5.723-4.977l.067.039-6.824 4.309-6.64-4.138.074-.047 6.58-4.1zM7.746 19.765l6.119-3.965v7.772z" transform="translate(-6.188 -4.719)"/></symbol><symbol viewBox="0 0 16.281 16.938" id="search"><defs><style>.jcls-1{fill:#9e9e9e;fill-rule:evenodd}</style></defs><path id="jForma_1" data-name="Forma 1" class="jcls-1" d="M23.507 22.438l-4.746-4.948a6.709 6.709 0 1 0-.472.432l4.757 4.96a.318.318 0 0 0 .451.009.321.321 0 0 0 .01-.453zm-9.492-3.61a6.084 6.084 0 1 1 6.068-6.084 6.083 6.083 0 0 1-6.069 6.084z" transform="translate(-7.313 -6.031)"/></symbol></svg>