<svg xmlns="http://www.w3.org/2000/svg" width="19.25" height="19.25" viewBox="0 0 19.25 19.25">
  <defs>
    <style>
      .cls-1 {
        fill: #d6d8d9;
        fill-rule: evenodd;
      }
    </style>
  </defs>
  <path class="cls-1" d="M20.912,11.56l1.9-2.316L20.765,7.2,18.354,9.173a6.6,6.6,0,0,0-1.616-.6L16.421,5.4h-2.9L13.2,8.575a6.553,6.553,0,0,0-1.616.6L9.175,7.2,7.132,9.243l1.9,2.316a6.571,6.571,0,0,0-.755,1.732l-2.941.294v2.888l2.945,0.294A6.631,6.631,0,0,0,9.029,18.5l-1.9,2.318,2.043,2.042,2.41-1.971a6.582,6.582,0,0,0,1.617.6l0.317,3.172h2.9l0.317-3.172a6.582,6.582,0,0,0,1.617-.6l2.41,1.971,2.043-2.042L20.91,18.5a6.634,6.634,0,0,0,.752-1.729l2.946-.294V13.585l-2.941-.294A6.576,6.576,0,0,0,20.912,11.56Zm-5.942,6.33a2.861,2.861,0,1,1,2.863-2.861A2.862,2.862,0,0,1,14.97,17.889Z" transform="translate(-5.344 -5.406)"/>
</svg>
