<svg xmlns="http://www.w3.org/2000/svg" width="18.188" height="18.188" viewBox="0 0 18.188 18.188">
  <defs>
    <style>
      .cls-1 {
        fill: #d6d8d9;
        fill-rule: evenodd;
      }
    </style>
  </defs>
  <path id="Forma_1" data-name="Forma 1" class="cls-1" d="M24.107,14.5A9.107,9.107,0,1,0,7.141,19.1h0a9.118,9.118,0,0,0,3.73,3.515h0A9.008,9.008,0,0,0,15,23.607a9.107,9.107,0,0,0,8.106-4.953h0A9.132,9.132,0,0,0,24.107,14.5ZM7.935,17.746a7.787,7.787,0,0,1-.125-6.205l2.276,1.647a5.1,5.1,0,0,0,.057,2.823L8.589,17.232ZM13.8,18.057h0a3.753,3.753,0,0,1-2.311-4.889h0a3.753,3.753,0,1,1,5,4.778h0A3.757,3.757,0,0,1,13.8,18.057Zm8.323-6.669a7.79,7.79,0,0,1,.649,3.112,7.7,7.7,0,0,1-.531,2.831l-2.294-1.66a5.091,5.091,0,0,0-.049-2.534l2.012-1.582ZM15,6.726a7.81,7.81,0,0,1,2.984.594L16.339,9.593a5.113,5.113,0,0,0-2.682,0L11.906,7.367A7.8,7.8,0,0,1,15,6.726Zm0,15.548a7.7,7.7,0,0,1-2.806-.521l1.662-2.3a5.093,5.093,0,0,0,2.674-.1l0.878,1.117,0.856,1.089A7.78,7.78,0,0,1,15,22.274Z" transform="translate(-5.906 -5.406)"/>
</svg>
