<svg xmlns="http://www.w3.org/2000/svg" width="18.125" height="24.375" viewBox="0 0 18.125 24.375">
  <defs>
    <style>
      .cls-1 {
        fill: #d6d8d9;
        fill-rule: evenodd;
      }
    </style>
  </defs>
  <path id="new_vector_shape_done" class="cls-1" d="M17.724,3.859a1.169,1.169,0,0,1-.176.4A2.536,2.536,0,0,0,17.321,5.7l0.453,0.126a4.913,4.913,0,0,1,2.767-1.987l0.327-.025a3.012,3.012,0,0,1,2.389.629,1.367,1.367,0,0,1,.579.629h-0.05a3.038,3.038,0,0,1-.629.126c-0.623.193-1.546,0.607-1.333,1.534a1.477,1.477,0,0,0,.075.453V7.2A1.452,1.452,0,0,1,23.483,9.04c-0.192.636-.8,1.067-0.6,1.962v0.4a1.845,1.845,0,0,0,.151.528c0.162,0.24.529,0.342,0.7,0.579a2.081,2.081,0,0,1,.327.906,1.293,1.293,0,0,1-.327.956A4.206,4.206,0,0,1,22.276,15.5a2.159,2.159,0,0,0-.755.453c-0.667.9-.228,2.714-0.2,4h0.05c0.174-.27.492-0.508,0.679-0.8a5.947,5.947,0,0,0,.453-1.232h0.025v0.025a2.169,2.169,0,0,1,.755,1.107,5.485,5.485,0,0,1,.252.83,3.175,3.175,0,0,1-.05,1.283c-0.055.221-.035,0.381-0.1,0.579a3.266,3.266,0,0,1-1.258,1.71,3.822,3.822,0,0,1-.553.3l-0.3.1a0.957,0.957,0,0,0-.151.3c-0.118.195-.273,0.375-0.4,0.553a3.98,3.98,0,0,1-1.685,1.308,5.374,5.374,0,0,1-.8.2H18.051a3.377,3.377,0,0,0-.478.352,5.151,5.151,0,0,1-1.409.5,6.3,6.3,0,0,1-3.32-.3,4.742,4.742,0,0,1-.7-0.4,1.13,1.13,0,0,0-.176-0.151l-0.453-.05a4.356,4.356,0,0,1-1.056-.4,4.52,4.52,0,0,1-1.308-1.207,4.535,4.535,0,0,0-.4-0.7C8.57,23.73,8.321,23.714,8.14,23.6a3.531,3.531,0,0,1-1.006-.855A4.2,4.2,0,0,1,6.581,19.4a3.816,3.816,0,0,1,.5-1.056c0.111-.155.285-0.277,0.4-0.428H7.512v0.025a3.1,3.1,0,0,1,.126.528,3.486,3.486,0,0,0,1.056,1.484c0.017-1.3.482-3.079-.2-4A2.16,2.16,0,0,0,7.738,15.5a4.2,4.2,0,0,1-1.459-1.132,1.308,1.308,0,0,1-.327-0.956,2.035,2.035,0,0,1,.327-0.905c0.176-.236.542-0.338,0.7-0.578A1.845,1.845,0,0,0,7.134,11.4a4.63,4.63,0,0,0,0-1.182,4.517,4.517,0,0,0-.453-0.755,1.619,1.619,0,0,1,.277-1.912,2.162,2.162,0,0,1,.654-0.3,2.191,2.191,0,0,0,.5-0.075,1.25,1.25,0,0,0,.075-0.7,2.42,2.42,0,0,0-.05-0.428,2.689,2.689,0,0,0-1.962-.981V4.991c0.17-.114.244-0.333,0.4-0.453a4.971,4.971,0,0,1,.8-0.5,3.815,3.815,0,0,1,.629-0.2,2.742,2.742,0,0,1,.729-0.05A3.924,3.924,0,0,1,11.36,4.84a5.03,5.03,0,0,1,.654.679,0.662,0.662,0,0,0,.277.3l0.226-.075V5.368a2.565,2.565,0,0,0,.1-0.453A2.391,2.391,0,0,1,13.85,3.456v0.05a2.389,2.389,0,0,1,.025.478,0.9,0.9,0,0,0,.327.729V4.689h0.025a2.39,2.39,0,0,1,1.811-1.861V2.953a2.26,2.26,0,0,0,.1,1.61,0.086,0.086,0,0,0,.05-0.025,1.658,1.658,0,0,0,.352-0.277A2.059,2.059,0,0,1,17.724,3.859Zm-9.181.6a9.006,9.006,0,0,0-.905.226,0.128,0.128,0,0,0-.025.075c0.133,0.06.276,0.185,0.4,0.226,0.161,0.052.558-.081,0.78-0.025a3.661,3.661,0,0,1,.8.252,3.435,3.435,0,0,1,.855.679,1.614,1.614,0,0,0,.428.528,1.376,1.376,0,0,0,.5-0.327H11.36a2.014,2.014,0,0,0-.4-0.5A2.8,2.8,0,0,0,8.543,4.463Zm12.5,0a1.263,1.263,0,0,1-.327.05,2.813,2.813,0,0,0-.7.252,3.606,3.606,0,0,0-.956.78,4.613,4.613,0,0,1-.428.553,0.086,0.086,0,0,0,.025.05,1.15,1.15,0,0,0,.553.277,2.834,2.834,0,0,1,1.912-1.434c0.435-.089,1.186.1,1.283-0.3H22.377V4.664a2.906,2.906,0,0,1-.528-0.151A3.23,3.23,0,0,0,21.044,4.463ZM8.618,5.469a1.858,1.858,0,0,0,.2.453C8.944,6.292,8.828,7.165,9.146,7.3a1.486,1.486,0,0,0,.528.126,2.3,2.3,0,0,0,.5-0.6A3.9,3.9,0,0,1,9.951,6.3,1.564,1.564,0,0,0,8.618,5.469Zm12.6,0a3.544,3.544,0,0,1-.478.151A1.846,1.846,0,0,0,19.836,6.9a2.2,2.2,0,0,0,.6.528A1.265,1.265,0,0,1,20.918,7.3a3,3,0,0,0,.176-0.4V6.626a5.713,5.713,0,0,1,.151-0.755A2.408,2.408,0,0,0,21.4,5.494,0.333,0.333,0,0,0,21.22,5.469ZM7.713,9.694a2.7,2.7,0,0,1,.025-0.5H7.763V9.216a2,2,0,0,1,.126.629,4.3,4.3,0,0,1-.277,2.54,1.167,1.167,0,0,1-.3.6V12.813a0.466,0.466,0,0,0,.025-0.226h-0.1a1.96,1.96,0,0,0-.377.377,1.224,1.224,0,0,0,.252,1.308c0.762,0.762,1.909.785,2.314,1.962a6.323,6.323,0,0,1,.05,2.339l-0.05,1.207a2.673,2.673,0,0,0-.05.654,6.683,6.683,0,0,0,1.912.327,5.08,5.08,0,0,1,.352-0.8c0.042-.094.008-0.158,0.05-0.252,0.219-.486.429-1.031,0.654-1.509l0.025-.226a3.579,3.579,0,0,1,.4-0.755v0.176a2.019,2.019,0,0,0-.1.579c-0.079.287-.105,0.625-0.2,0.931-0.113.359-.218,0.791-0.352,1.132-0.065.165-.035,0.288-0.1,0.453a4.3,4.3,0,0,0-.327.906c2.159,0,4.481,0,6.64,0a2.991,2.991,0,0,0-.277-0.755V20.51c-0.113-.32-0.228-0.708-0.352-1.031-0.05-.132,0-0.22-0.05-0.352a7.167,7.167,0,0,1-.4-1.912H17.3a3.554,3.554,0,0,0,.352.755L17.673,18.2c0.267,0.567.479,1.212,0.755,1.786a1.041,1.041,0,0,0,.428.78,6.221,6.221,0,0,1,.7-0.05,5.733,5.733,0,0,0,1.056-.277c0.022-.019.028-0.032,0.05-0.05-0.106-.567-0.026-1.233-0.151-1.811V18.1a5.2,5.2,0,0,1,.025-1.685,2.909,2.909,0,0,1,.528-0.981,1.179,1.179,0,0,1,.327-0.2,6.455,6.455,0,0,0,1.66-1.107c0.277-.457.273-1.466-0.377-1.534l0.025,0.4h-0.05a1.654,1.654,0,0,0-.2-0.377,5.887,5.887,0,0,1-.2-0.553,4.919,4.919,0,0,1,0-2.867,0.09,0.09,0,0,1,.025.05,2.812,2.812,0,0,1,.05.453h0.05a1.593,1.593,0,0,1,.2-0.3,1.878,1.878,0,0,0,.252-1.006,1.3,1.3,0,0,0-.478-0.428,2.716,2.716,0,0,0-1.383.05,6.729,6.729,0,0,0-.88.2A13.825,13.825,0,0,0,17.9,9.418a5.071,5.071,0,0,1-.981.7v-0.05a7.578,7.578,0,0,0,.528-0.755,3.094,3.094,0,0,1,.252-0.2,6.935,6.935,0,0,1,1.082-.931,2.3,2.3,0,0,1,.8-0.453v-0.1c-0.1-.064-0.157-0.192-0.252-0.252-0.25-.157-0.519-0.322-0.78-0.453-0.11-.055-0.2-0.024-0.327-0.075-0.395-.161-0.862-0.315-1.308-0.453h-0.2c-0.083-.025-0.288-0.078-0.377-0.1h-0.3a7.841,7.841,0,0,0-4,.453c-0.1.042-.151,0.007-0.252,0.05a5.5,5.5,0,0,0-1.031.6,0.551,0.551,0,0,0-.3.3,5.016,5.016,0,0,1,2.012,1.559,2.812,2.812,0,0,1,.629.855H13.02a4.106,4.106,0,0,0-.755-0.553A8.6,8.6,0,0,0,9.222,8.009C8.545,7.794,7.4,7.83,7.185,8.386v0.4A2.152,2.152,0,0,0,7.713,9.694ZM9.2,10.977a4.336,4.336,0,0,1,2.767,1.132,2.108,2.108,0,0,1,.478.553,1.7,1.7,0,0,0,.679.4,0.981,0.981,0,0,0,.579.075c0.123-.044.3-0.113,0.428-0.151v0.176a1.311,1.311,0,0,0-.1.252,1.235,1.235,0,0,1-.4.377c-0.124.067-.364,0.055-0.478,0.126-0.086.146-.053,0.488-0.126,0.654-0.115.265-.3,0.482-0.428,0.729h-0.05V15.178a1.822,1.822,0,0,0-.075-1.333c-0.226.089-.384,0.251-0.629,0.327a2.34,2.34,0,0,1-2.213-.88,3.966,3.966,0,0,1-.252-0.528v-0.1L9.3,12.637a1.564,1.564,0,0,0-.126-0.578v0.025a5.316,5.316,0,0,1-.176.6l-0.025-.05a1.408,1.408,0,0,1-.176-0.981c0.057-.177.217-0.269,0.277-0.428a0.889,0.889,0,0,1-.528-0.2A2.285,2.285,0,0,0,9.2,10.977Zm11.47,0,0.8,0.05v0.05h-0.05a1.8,1.8,0,0,0-.478.2,1.142,1.142,0,0,1,.1,1.383l-0.075.025a1.567,1.567,0,0,0-.126-0.629h-0.05A2.235,2.235,0,0,1,18.805,14.2a1.563,1.563,0,0,1-.905-0.126,0.55,0.55,0,0,0-.352-0.2,2.131,2.131,0,0,0-.075,1.434h-0.05V15.278a2.368,2.368,0,0,1-.478-0.855,2.491,2.491,0,0,0-.075-0.5c-0.1-.061-0.268-0.026-0.377-0.075a0.956,0.956,0,0,1-.6-0.855h0.05a1.334,1.334,0,0,0,1.157.025,2.9,2.9,0,0,0,.679-0.629,5.578,5.578,0,0,1,1.182-.931,5.9,5.9,0,0,1,1.056-.4A3.224,3.224,0,0,0,20.666,10.977ZM13.825,11a2.616,2.616,0,0,0,1.509.3c0.313-.076.584-0.216,0.855-0.3v0.05a4.217,4.217,0,0,1-.956.679H14.781A2.157,2.157,0,0,1,13.825,11Zm-3.722.755c-0.057.884-.092,1.476,0.6,1.836a1.606,1.606,0,0,0,1.56-.126c-0.232-.179-0.365-0.5-0.6-0.679-0.326-.246-0.627-0.48-0.981-0.7A1.325,1.325,0,0,0,10.1,11.757Zm9.734,0c-0.271.266-.69,0.383-0.981,0.629v0.05c-0.214.181-.45,0.315-0.654,0.5-0.164.151-.294,0.346-0.453,0.5l0.025,0.126c0.226,0.043.461,0.146,0.7,0.2a0.863,0.863,0,0,0,.4-0.05,1.165,1.165,0,0,0,1.056-.981,1.6,1.6,0,0,0-.05-0.956A0.091,0.091,0,0,0,19.836,11.757ZM7.31,19.277a3.43,3.43,0,0,0-.075,1.987,4.038,4.038,0,0,0,.252.78,3.208,3.208,0,0,0,2.767,1.409V23.428h0.025a1.559,1.559,0,0,1,.126-1.409,2.061,2.061,0,0,0,.453-0.6H10.832V21.39a4.1,4.1,0,0,1-2.943-1.157c-0.121-.162-0.248-0.331-0.352-0.5A1.43,1.43,0,0,0,7.31,19.277Zm12.425,4.2a3.168,3.168,0,0,0,2.842-1.484,2.706,2.706,0,0,0,.226-0.755,3.224,3.224,0,0,0-.076-1.937,0.127,0.127,0,0,0-.075-0.025,0.091,0.091,0,0,1-.05.025,1.164,1.164,0,0,1-.327.7,3.543,3.543,0,0,1-2.088,1.283c-0.319.1-.716,0.022-1.031,0.126v0.05a1.454,1.454,0,0,1,.226.327,1.7,1.7,0,0,1,.453.729A4.478,4.478,0,0,1,19.736,23.478Zm-8-1.484a0.9,0.9,0,0,1-.252.05,1.032,1.032,0,0,0-.579.4c-0.28.543,0.26,1.423,0.4,1.761v0.126a3.845,3.845,0,0,0,.428.629,3.343,3.343,0,0,0,2.037,1.383,3.291,3.291,0,0,0,1.509.151h0.352a5.568,5.568,0,0,0,.755-0.151A4.34,4.34,0,0,0,19.157,23.1V22.774c0-.8-0.872-0.78-1.685-0.78H11.737Zm0.226,0.7c0.613,0,1.3.022,1.836,0.05a0.421,0.421,0,0,1,.176.377,0.578,0.578,0,0,0-.05.126,1.292,1.292,0,0,0-.126.076c-0.038.062-.013,0.113-0.05,0.176a3.06,3.06,0,0,1-.578.679c-0.679.386-1.2-.414-1.434-0.754a0.792,0.792,0,0,1-.176-0.2V22.9a0.453,0.453,0,0,1,.3-0.151C11.885,22.732,11.942,22.715,11.964,22.7Zm4.452,0c0.622,0,1.316.023,1.861,0.05a0.449,0.449,0,0,1,.176.478,2.26,2.26,0,0,0-.277.427,2.342,2.342,0,0,1-.679.579,0.99,0.99,0,0,1-.528,0,2.2,2.2,0,0,1-.931-1.308,0.393,0.393,0,0,1,.3-0.176C16.36,22.731,16.4,22.716,16.416,22.7ZM9.725,24.107a2.407,2.407,0,0,0,1.006,1.006,0.606,0.606,0,0,0,.4.176h0.025V25.264c-0.213-.18-0.43-0.943-0.6-1.031A4.2,4.2,0,0,0,9.725,24.107Zm10.489,0a3.135,3.135,0,0,1-.8.126c-0.064.258-.538,0.957-0.528,1.056a0.091,0.091,0,0,0,.05.025,3.574,3.574,0,0,1,.327-0.151,2.975,2.975,0,0,0,1.031-1.006h0.025c0.025-.025-0.025-0.025-0.025-0.025A0.128,0.128,0,0,0,20.214,24.107Z" transform="translate(-5.938 -2.813)"/>
</svg>
