<svg xmlns="http://www.w3.org/2000/svg" width="19.438" height="22.063" viewBox="0 0 19.438 22.063">
  <defs>
    <style>
      .cls-1 {
        fill: #d6d8d9;
        fill-rule: evenodd;
      }
    </style>
  </defs>
  <path class="cls-1" d="M5.612,3.734a0.332,0.332,0,0,0-.336.367l1.71,19.176a0.574,0.574,0,0,0,.388.466l7.257,2.014a1.574,1.574,0,0,0,.711,0l7.279-2.018a0.574,0.574,0,0,0,.388-0.466L24.723,4.1a0.332,0.332,0,0,0-.336-0.367H5.612Zm15.469,4.4-0.062.695-0.045.5c-0.018.2-.044,0.491-0.058,0.641s-0.026.274-.029,0.274H11.913a0.332,0.332,0,0,0-.336.367l0.158,1.766a0.412,0.412,0,0,0,.4.367h8.2a0.3,0.3,0,0,1,.3.328c-0.016.18-.044,0.493-0.062,0.7l-0.508,5.695c-0.018.2-.041,0.46-0.051,0.573a0.493,0.493,0,0,1-.374.3l-4.288,1.189-0.361.1s-0.165-.043-0.361-0.1l-4.293-1.191a0.573,0.573,0,0,1-.388-0.466l-0.276-3.1a0.332,0.332,0,0,1,.336-0.367h1.714a0.412,0.412,0,0,1,.4.367l0.108,1.214a0.569,0.569,0,0,0,.389.463L14.633,19l0.358,0.1,0.358-.1,2.012-.544a0.569,0.569,0,0,0,.389-0.463l0.218-2.432a0.332,0.332,0,0,0-.336-0.367H9.9a0.412,0.412,0,0,1-.4-0.367l-0.535-6L8.9,8.132A0.316,0.316,0,0,1,9.244,7.8h11.5A0.316,0.316,0,0,1,21.081,8.132Z" transform="translate(-5.281 -3.75)"/>
</svg>
