<svg xmlns="http://www.w3.org/2000/svg" width="17.938" height="19.625" viewBox="0 0 17.938 19.625">
  <defs>
    <style>
      .cls-1 {
        fill: #d6d8d9;
        fill-rule: evenodd;
      }
    </style>
  </defs>
  <path id="Forma_1" data-name="Forma 1" class="cls-1" d="M23.145,21.868a1.3,1.3,0,0,0-.4.064l-1.474-1.057a1.325,1.325,0,0,0-.55-1.032v-3a1.326,1.326,0,0,0,.551-1.073c0-.008,0-0.016,0-0.024l1.54-1.1a1.3,1.3,0,0,0,.338.045,1.317,1.317,0,1,0-1.316-1.317,1.293,1.293,0,0,0,.007.134L20.4,14.532a1.3,1.3,0,0,0-.457-0.083,1.319,1.319,0,0,0-.546.119l-2.587-1.495a1.321,1.321,0,0,0-.569-0.961V9.331l1.517-1.519a1.317,1.317,0,1,0-1.078-1.03L15.5,7.967,14.316,6.782a1.315,1.315,0,1,0-1.288,1.047,1.3,1.3,0,0,0,.21-0.018l1.517,1.519v2.782a1.322,1.322,0,0,0-.569.961L11.6,14.568a1.321,1.321,0,0,0-1.316,2.276v3a1.326,1.326,0,0,0-.55,1.032L8.258,21.932a1.3,1.3,0,0,0-.4-0.064,1.317,1.317,0,1,0,1.316,1.317c0-.024,0-0.048,0-0.072l1.37-.981a1.33,1.33,0,0,0,1.062-.014l2.586,1.494a1.32,1.32,0,0,0,2.628,0L19.4,22.118a1.33,1.33,0,0,0,1.062.014l1.369,0.981c0,0.024,0,.048,0,0.072A1.316,1.316,0,1,0,23.145,21.868Zm-3.967-5.024v3a1.328,1.328,0,0,0-.544.939l-2.59,1.5a1.318,1.318,0,0,0-1.088,0l-2.59-1.5a1.327,1.327,0,0,0-.544-0.939v-3a1.329,1.329,0,0,0,.544-0.94l2.59-1.5a1.333,1.333,0,0,0,1.088,0l2.59,1.5A1.328,1.328,0,0,0,19.178,16.844Z" transform="translate(-6.531 -5.188)"/>
</svg>
