<svg xmlns="http://www.w3.org/2000/svg" width="30" height="30" viewBox="0 0 30 30">
  <defs>
    <style>
      .cls-1 {
        fill: none;
        stroke: #d6d8d9;
        stroke-width: 1px;
      }

      .cls-1, .cls-2 {
        fill-rule: evenodd;
      }

      .cls-2 {
        fill: #d6d8d9;
      }
    </style>
  </defs>
  <path id="Wielokąt_1" data-name="Wielokąt 1" class="cls-1" d="M15.029,4l9.013,5.4v10.8l-9.013,5.4-9.013-5.4V9.4Z"/>
  <path id="new_vector_shape_done" class="cls-2" d="M15.31,10.59h0.947A5.7,5.7,0,0,1,16,11.908l-0.046.393c-0.13.481-.2,1.044-0.324,1.525-0.121.46-.11,0.9-0.231,1.364-0.351,1.335-.529,2.765-0.809,4.136H13.67a2.492,2.492,0,0,1,.116-0.6c0.129-.492.156-0.994,0.277-1.456,0.061-.234.031-0.413,0.092-0.647,0.191-.723.273-1.542,0.462-2.265,0.061-.234.031-0.413,0.092-0.647,0.162-.62.2-1.295,0.37-1.941A6.234,6.234,0,0,0,15.31,10.59Zm-2.1,1.248v1.618a6.155,6.155,0,0,0-1.155.555c-0.669.35-1.361,0.646-2.033,0.971v0.046a3.656,3.656,0,0,1,.786.393c0.538,0.282,1.09.532,1.618,0.809a7.665,7.665,0,0,1,.786.37v1.595a1.044,1.044,0,0,1-.393-0.208c-0.252-.154-0.521-0.268-0.763-0.416-0.715-.438-1.489-0.771-2.2-1.2C9.579,16.2,9.278,16.052,9,15.905a3.362,3.362,0,0,1-.393-0.185v-1.41a14.738,14.738,0,0,0,1.641-.9c0.535-.291,1.076-0.517,1.595-0.832,0.324-.2.682-0.351,1.017-0.555A1.066,1.066,0,0,1,13.207,11.838Zm3.512,0a1.211,1.211,0,0,1,.323.185c0.252,0.154.521,0.269,0.763,0.416,0.174,0.106.357,0.148,0.531,0.254,0.6,0.363,1.253.677,1.849,1.04,0.263,0.16.549,0.3,0.809,0.439a0.891,0.891,0,0,1,.323.162v1.387A1.876,1.876,0,0,0,20.81,16c-0.238.145-.489,0.254-0.716,0.393-0.623.381-1.294,0.637-1.918,1.017-0.309.188-.65,0.337-0.971,0.532a2.562,2.562,0,0,1-.485.277V16.6a3.924,3.924,0,0,0,.832-0.416c0.534-.277,1.074-0.514,1.595-0.786a2.314,2.314,0,0,0,.763-0.416,3.084,3.084,0,0,1-.647-0.324c-0.589-.3-1.184-0.556-1.756-0.855a5.363,5.363,0,0,1-.786-0.37V11.838Z"/>
</svg>
