<svg xmlns="http://www.w3.org/2000/svg" width="16.625" height="20.375" viewBox="0 0 16.625 20.375">
  <defs>
    <style>
      .cls-1 {
        fill: #d6d8d9;
        fill-rule: evenodd;
      }
    </style>
  </defs>
  <path id="Forma_1" data-name="Forma 1" class="cls-1" d="M22.524,9.371l-0.016-.007-0.03-.02-7.8-4.554a0.542,0.542,0,0,0-.559.008L6.505,9.541l-0.024.017-0.006,0a0.541,0.541,0,0,0-.278.473v9.74a0.54,0.54,0,0,0,.255.459l7.668,4.776a0.542,0.542,0,0,0,.575,0l7.857-4.964a0.541,0.541,0,0,0,.252-0.457V9.844A0.54,0.54,0,0,0,22.524,9.371ZM13.4,14.818L7.278,18.779V11.007Zm1.549,0.952,6.29,3.823-6.29,3.974v-7.8h0Zm0.485-.97,6.29-3.975v7.8Zm5.723-4.977,0.067,0.039L14.4,14.171,7.76,10.033l0.074-.047,6.58-4.1ZM7.746,19.765L13.865,15.8v7.772Z" transform="translate(-6.188 -4.719)"/>
</svg>
